HIERARCHY
ROOT hip
{
  OFFSET -73.1628 84.4708 21.2842
  CHANNELS 6 Xposition Yposition Zposition Zrotation Xrotation Yrotation
  JOINT abdomen
  {
    OFFSET 0 20.6881 -0.73152
    CHANNELS 3 Zrotation Xrotation Yrotation
    JOINT chest
    {
      OFFSET 0 11.7043 -0.48768
      CHANNELS 3 Zrotation Xrotation Yrotation
      JOINT neck
      {
        OFFSET 0 22.1894 -2.19456
        CHANNELS 3 Zrotation Xrotation Yrotation
        JOINT head
        {
          OFFSET -0.24384 7.07133 1.2192
          CHANNELS 3 Zrotation Xrotation Yrotation
          JOINT leftEye
          {
            OFFSET 4.14528 8.04674 8.04672
            CHANNELS 3 Zrotation Xrotation Yrotation
            End Site
            {
              OFFSET 1 0 0
            }
          }
          JOINT rightEye
          {
            OFFSET -3.6576 8.04674 8.04672
            CHANNELS 3 Zrotation Xrotation Yrotation
            End Site
            {
              OFFSET 1 0 0
            }
          }
        }
      }
      JOINT rCollar
      {
        OFFSET -2.68224 19.2634 -4.8768
        CHANNELS 3 Zrotation Xrotation Yrotation
        JOINT rShldr
        {
          OFFSET -8.77824 -1.95073 1.46304
          CHANNELS 3 Zrotation Xrotation Yrotation
          JOINT rForeArm
          {
            OFFSET -28.1742 -1.7115 0.48768
            CHANNELS 3 Zrotation Xrotation Yrotation
            JOINT rHand
            {
              OFFSET -22.5879 0.773209 7.07136
              CHANNELS 3 Zrotation Xrotation Yrotation
              JOINT rThumb1
              {
                OFFSET -1.2192 -0.487915 3.41376
                CHANNELS 3 Zrotation Xrotation Yrotation
                JOINT rThumb2
                {
                  OFFSET -3.37035 -0.52449 3.41376
                  CHANNELS 3 Zrotation Xrotation Yrotation
                  End Site
                  {
                    OFFSET -1.78271 -1.18214 1.43049
                  }
                }
              }
              JOINT rIndex1
              {
                OFFSET -7.75947 0.938293 5.60832
                CHANNELS 3 Zrotation Xrotation Yrotation
                JOINT rIndex2
                {
                  OFFSET -2.54057 -0.884171 1.56538
                  CHANNELS 3 Zrotation Xrotation Yrotation
                  End Site
                  {
                    OFFSET -1.62519 -0.234802 1.16502
                  }
                }
              }
              JOINT rMid1
              {
                OFFSET -8.24714 1.18213 3.41376
                CHANNELS 3 Zrotation Xrotation Yrotation
                JOINT rMid2
                {
                  OFFSET -3.10165 -0.590103 1.0647
                  CHANNELS 3 Zrotation Xrotation Yrotation
                  End Site
                  {
                    OFFSET -2.48547 -0.328903 0.83742
                  }
                }
              }
              JOINT rRing1
              {
                OFFSET -8.82822 0.546677 1.51678
                CHANNELS 3 Zrotation Xrotation Yrotation
                JOINT rRing2
                {
                  OFFSET -2.60934 -0.819778 -0.0198488
                  CHANNELS 3 Zrotation Xrotation Yrotation
                  End Site
                  {
                    OFFSET -2.33842 -0.294052 0.168128
                  }
                }
              }
              JOINT rPinky1
              {
                OFFSET -8.27202 -0.0477905 -0.4584
                CHANNELS 3 Zrotation Xrotation Yrotation
                JOINT rPinky2
                {
                  OFFSET -1.82734 -0.647385 -0.700984
                  CHANNELS 3 Zrotation Xrotation Yrotation
                  End Site
                  {
                    OFFSET -1.69225 -0.51767 -0.607171
                  }
                }
              }
            }
          }
        }
      }
      JOINT lCollar
      {
        OFFSET 2.68224 19.2634 -4.8768
        CHANNELS 3 Zrotation Xrotation Yrotation
        JOINT lShldr
        {
          OFFSET 8.77824 -1.95073 1.46304
          CHANNELS 3 Zrotation Xrotation Yrotation
          JOINT lForeArm
          {
            OFFSET 28.1742 -1.7115 0.48768
            CHANNELS 3 Zrotation Xrotation Yrotation
            JOINT lHand
            {
              OFFSET 22.5879 0.773209 7.07136
              CHANNELS 3 Zrotation Xrotation Yrotation
              JOINT lThumb1
              {
                OFFSET 1.2192 -0.487915 3.41376
                CHANNELS 3 Zrotation Xrotation Yrotation
                JOINT lThumb2
                {
                  OFFSET 3.37035 -0.52449 3.41376
                  CHANNELS 3 Zrotation Xrotation Yrotation
                  End Site
                  {
                    OFFSET 1.78271 -1.18214 1.43049
                  }
                }
              }
              JOINT lIndex1
              {
                OFFSET 7.75947 0.938293 5.60832
                CHANNELS 3 Zrotation Xrotation Yrotation
                JOINT lIndex2
                {
                  OFFSET 2.54057 -0.884171 1.56538
                  CHANNELS 3 Zrotation Xrotation Yrotation
                  End Site
                  {
                    OFFSET 1.62519 -0.234802 1.16502
                  }
                }
              }
              JOINT lMid1
              {
                OFFSET 8.24714 1.18213 3.41376
                CHANNELS 3 Zrotation Xrotation Yrotation
                JOINT lMid2
                {
                  OFFSET 3.10165 -0.590103 1.0647
                  CHANNELS 3 Zrotation Xrotation Yrotation
                  End Site
                  {
                    OFFSET 2.48547 -0.328903 0.83742
                  }
                }
              }
              JOINT lRing1
              {
                OFFSET 8.82822 0.546677 1.51678
                CHANNELS 3 Zrotation Xrotation Yrotation
                JOINT lRing2
                {
                  OFFSET 2.60934 -0.819778 -0.0198488
                  CHANNELS 3 Zrotation Xrotation Yrotation
                  End Site
                  {
                    OFFSET 2.33842 -0.294052 0.168128
                  }
                }
              }
              JOINT lPinky1
              {
                OFFSET 8.27202 -0.0477905 -0.4584
                CHANNELS 3 Zrotation Xrotation Yrotation
                JOINT lPinky2
                {
                  OFFSET 1.82734 -0.647385 -0.700984
                  CHANNELS 3 Zrotation Xrotation Yrotation
                  End Site
                  {
                    OFFSET 1.69225 -0.51767 -0.607171
                  }
                }
              }
            }
          }
        }
      }
    }
  }
  JOINT rButtock
  {
    OFFSET -8.77824 4.35084 1.2192
    CHANNELS 3 Zrotation Xrotation Yrotation
    JOINT rThigh
    {
      OFFSET 0 -1.70687 -2.19456
      CHANNELS 3 Zrotation Xrotation Yrotation
      JOINT rShin
      {
        OFFSET 0 -36.8199 0.73152
        CHANNELS 3 Zrotation Xrotation Yrotation
        JOINT rFoot
        {
          OFFSET 0.73152 -45.1104 -5.12064
          CHANNELS 3 Zrotation Xrotation Yrotation
          End Site
          {
            OFFSET -1.1221 -3.69964 12.103
          }
        }
      }
    }
  }
  JOINT lButtock
  {
    OFFSET 8.77824 4.35084 1.2192
    CHANNELS 3 Zrotation Xrotation Yrotation
    JOINT lThigh
    {
      OFFSET 0 -1.70687 -2.19456
      CHANNELS 3 Zrotation Xrotation Yrotation
      JOINT lShin
      {
        OFFSET 0 -36.8199 0.73152
        CHANNELS 3 Zrotation Xrotation Yrotation
        JOINT lFoot
        {
          OFFSET -0.73152 -45.1104 -5.12064
          CHANNELS 3 Zrotation Xrotation Yrotation
          End Site
          {
            OFFSET 1.1221 -3.69964 12.103
          }
        }
      }
    }
  }
}
MOTION
Frames:	4
Frame Time:	0.00833333
141.114 85.257 -116.29 -0.600078 -0.000950491 0.0106097 0.789641 -0.00446502 0.0222088 0.21799 -0.00605003 0.037771 -3.5654e-014 7.95139e-016 -3.7272e-017 -1.07073e-013 9.54166e-015 -9.16273e-017 -0 0 0 -0 0 0 -1.78426e-014 3.30014e-017 9.93923e-017 -3.72675e-013 7.3923e-016 -3.97569e-016 -6.45508e-012 1.95266e-012 4.45278e-014 -7.38649e-011 -1.81438e-012 -1.27222e-013 -1.74243e-010 2.96076e-013 -1.7175e-013 -3.00922e-010 5.08889e-013 -2.82274e-013 -1.74236e-010 2.98177e-013 -1.78111e-013 7.73091 5.47488 0.417314 -1.74243e-010 2.95891e-013 -1.62208e-013 2.90554 0.965183 0.102902 -1.7423e-010 2.96587e-013 -1.66979e-013 10.2786 0.731801 0.0259123 -1.7425e-010 2.97779e-013 -1.59028e-013 2.22167 -0.733487 -0.20892 -1.79398e-014 3.18366e-017 -9.93923e-017 -3.76963e-013 9.38015e-016 -2.38542e-015 -6.45533e-012 -1.90913e-012 8.90555e-014 -7.38714e-011 2.05469e-012 -1.78111e-013 -1.74253e-010 3.10015e-013 -1.74931e-013 -3.00921e-010 5.31153e-013 -2.8466e-013 -1.7426e-010 3.11297e-013 -1.62208e-013 -7.73091 5.47488 -0.417314 -1.74253e-010 3.10303e-013 -1.68569e-013 -2.90554 0.965183 -0.102902 -1.74263e-010 3.10303e-013 -1.68569e-013 -10.2786 0.731801 -0.0259123 -1.74249e-010 3.10502e-013 -1.78111e-013 -2.22167 -0.733487 0.20892 -2.03217e-016 0 -3.88251e-019 1.08509 -5.04717 -0.0936489 -0.000742364 3.58967 0.0095754 -0.492431 1.45757 0.0856817 2.03217e-016 0 3.88251e-019 0.11741 -2.07523 0.0163735 0.00876964 -1.79348 0.0734858 0.480551 3.86867 -0.133037 
141.522 82.585 -118.791 0.899833 3.53407 -7.25755 -1.28881 -2.80094 -0.466906 1.00358 -0.781232 -0.0634627 0.477593 3.30165 1.65257 -2.52862 -6.14144 2.77607 -0 0 0 -0 0 0 7.14075e-014 7.61683e-014 1.79779e-013 21.1666 13.8316 -4.66609 -4.83327 -2.33356 7.3944 0.00963399 -2.1775 -0.305229 -6.77404e-010 -1.73887e-010 -7.05282e-011 -1.1692e-009 -3.01609e-010 -1.25946e-010 -6.77398e-010 -1.73885e-010 -7.05353e-011 7.73091 5.47488 0.417314 -6.77405e-010 -1.73886e-010 -7.05204e-011 2.90554 0.965183 0.102902 -6.77394e-010 -1.73886e-010 -7.05254e-011 10.2786 0.731801 0.0259123 -6.77409e-010 -1.73885e-010 -7.05174e-011 2.22167 -0.733487 -0.20892 7.13452e-014 7.61665e-014 1.79608e-013 -18.5553 11.447 2.36573 7.21766 -4.22201 -10.0699 -0.00427454 -1.50377 0.211118 -9.98905e-010 -6.44709e-010 -5.66853e-011 -1.7257e-009 -1.11591e-009 -1.00397e-010 -9.98912e-010 -6.44708e-010 -5.66735e-011 -7.73091 5.47488 -0.417314 -9.98906e-010 -6.44709e-010 -5.66815e-011 -2.90554 0.965183 -0.102902 -9.98916e-010 -6.44708e-010 -5.66808e-011 -10.2786 0.731801 -0.0259123 -9.98903e-010 -6.44708e-010 -5.669e-011 -2.22167 -0.733487 0.20892 -2.03217e-016 0 -3.88251e-019 0.409172 -14.7996 -0.65658 -0.0206474 19.4549 0.225335 -1.08613 1.41471 -4.7145 2.03217e-016 0 3.88251e-019 -1.86092 -8.75388 0.0736214 -0.0185601 6.9561 -0.0629101 0.598327 -3.28453 1.09427 
141.377 82.5619 -118.253 3.46177 7.07647 -15.0706 -3.54327 -5.76426 -0.979854 1.82486 -1.60084 -0.168578 0.779968 6.80483 3.42308 -4.55468 -12.5924 5.82529 -0 0 0 -0 0 0 1.70946e-013 1.60758e-013 3.8595e-013 46.2695 28.11 -10.5705 -9.28046 -4.66051 15.2311 -0.00547899 -4.47959 -0.629421 -1.24363e-009 -3.70556e-010 -1.46944e-010 -2.14634e-009 -6.42687e-010 -2.62594e-010 -1.24363e-009 -3.70553e-010 -1.46952e-010 7.73091 5.47488 0.417314 -1.24364e-009 -3.70554e-010 -1.46938e-010 2.90554 0.965183 0.102902 -1.24363e-009 -3.70554e-010 -1.46944e-010 10.2786 0.731801 0.0259123 -1.24364e-009 -3.70554e-010 -1.46936e-010 2.22167 -0.733487 -0.20892 1.70922e-013 1.60755e-013 3.85807e-013 -39.2998 23.4554 5.23171 13.2043 -8.19532 -20.8251 0.0034117 -3.04751 0.428361 -1.92253e-009 -1.39078e-009 -1.30577e-010 -3.32137e-009 -2.4072e-009 -2.30888e-010 -1.92254e-009 -1.39078e-009 -1.30567e-010 -7.73091 5.47488 -0.417314 -1.92253e-009 -1.39078e-009 -1.30576e-010 -2.90554 0.965183 -0.102902 -1.92254e-009 -1.39078e-009 -1.30575e-010 -10.2786 0.731801 -0.0259123 -1.92253e-009 -1.39078e-009 -1.30583e-010 -2.22167 -0.733487 0.20892 -2.03217e-016 0 -3.88251e-019 -0.547783 -25.0571 -1.34526 -0.201605 36.2569 0.52955 -1.7185 1.39752 -9.79829 2.03217e-016 0 3.88251e-019 -3.93697 -15.8416 0.152287 -0.00045717 16.2209 -0.213984 1.06893 -10.8579 2.46044 
141.208 82.5447 -117.611 6.55191 9.92037 -22.0997 -5.59023 -8.39148 -1.45909 2.56653 -2.33157 -0.266133 0.854896 9.87175 5.02405 -5.72738 -18.2467 8.7221 -0 0 0 -0 0 0 2.49908e-013 2.28439e-013 5.39139e-013 71.9424 40.2167 -17.9235 -12.7332 -6.53529 22.3175 -0.0410824 -6.53174 -0.921004 -1.68373e-009 -5.22253e-010 -2.11241e-010 -2.90574e-009 -9.05845e-010 -3.77272e-010 -1.68372e-009 -5.2225e-010 -2.1125e-010 7.73091 5.47488 0.417314 -1.68373e-009 -5.22251e-010 -2.11237e-010 2.90554 0.965183 0.102902 -1.68372e-009 -5.22251e-010 -2.11242e-010 10.2786 0.731801 0.0259123 -1.68373e-009 -5.22251e-010 -2.11234e-010 2.22167 -0.733487 -0.20892 2.49915e-013 2.28436e-013 5.39022e-013 -58.9915 34.0817 8.40799 17.3616 -11.1019 -30.763 0.0205093 -4.51107 0.635102 -2.64821e-009 -1.93475e-009 -1.69706e-010 -4.57526e-009 -3.34878e-009 -3.00622e-010 -2.64821e-009 -1.93475e-009 -1.69696e-010 -7.73091 5.47488 -0.417314 -2.64821e-009 -1.93475e-009 -1.69707e-010 -2.90554 0.965183 -0.102902 -2.64822e-009 -1.93475e-009 -1.69705e-010 -10.2786 0.731801 -0.0259123 -2.64821e-009 -1.93475e-009 -1.69714e-010 -2.22167 -0.733487 0.20892 -2.03217e-016 0 -3.88251e-019 -1.62777 -34.2896 -2.07933 -0.605054 51.1817 0.986375 -2.29575 1.30169 -14.3143 2.03217e-016 0 3.88251e-019 -5.77461 -22.1111 0.200296 0.0605294 24.4548 -0.367182 1.78624 -17.558 3.71623 
